ply
format ascii 1.0
comment Generated by zoo.dev
element vertex 888
property float x
property float y
property float z
element face 296
property list uchar uint vertex_indices
end_header
25 -0 0
34.5 -1 0.00000000000000006123234
25.5 -1 0
44.5 -2 0.00000000000000006123234
35.5 -2 0
44.5 -1 0.00000000000000006123234
44.5 -2 0.00000000000000006123234
0 -10 0
35.5 -2 0
45.5 -2 0
0 -10 0
44.5 -2 0.00000000000000006123234
50 -0 0
100 -10 0
45.5 -2 0
100 -0 0
100 -10 0
50 -0 0
44.5 -1 0.00000000000000006123234
35.5 -2 0
35.5 -1 0
34.5 -2 0.00000000000000006123234
35.5 -2 0
0 -10 0
45.5 -2 0
100 -10 0
0 -10 0
45.5 -2 0
45.5 -1 0
50 -0 0
34.5 -2 0.00000000000000006123234
25.5 -2 0
34.5 -1 0.00000000000000006123234
34.5 -2 0.00000000000000006123234
0 -10 0
25.5 -2 0
34.5 -1 0.00000000000000006123234
25.5 -2 0
25.5 -1 0
24.5 -2 0.00000000000000006123234
25.5 -2 0
0 -10 0
45.5 -1 0
44.5 -1 0.00000000000000006123234
50 -0 0
44.5 -1 0.00000000000000006123234
35.5 -1 0
50 -0 0
24.5 -2 0.00000000000000006123234
15.5 -2 0
24.5 -1 0.00000000000000006123234
24.5 -2 0.00000000000000006123234
0 -10 0
15.5 -2 0
24.5 -1 0.00000000000000006123234
15.5 -2 0
15.5 -1 0
14.5 -2 0.00000000000000006123234
15.5 -2 0
0 -10 0
35.5 -1 0
25 -0 0
50 -0 0
34.5 -1 0.00000000000000006123234
25 -0 0
35.5 -1 0
14.5 -2 0.00000000000000006123234
5.5 -2 0
14.5 -1 0.00000000000000006123234
14.5 -2 0.00000000000000006123234
0 -10 0
5.5 -2 0
14.5 -1 0.00000000000000006123234
5.5 -2 0
5.5 -1 0
4.5 -2 0.00000000000000006123234
5.5 -2 0
0 -10 0
25.5 -1 0
24.5 -1 0.00000000000000006123234
25 -0 0
14.5 -1 0.00000000000000006123234
0 -0 0
25 -0 0
4.5 -2 0.00000000000000006123234
0 -0 0
4.5 -1 0.00000000000000006123234
4.5 -2 0.00000000000000006123234
0 -10 0
0 -0 0
5.5 -1 0
4.5 -1 0.00000000000000006123234
0 -0 0
25 -0 0
24.5 -1 0.00000000000000006123234
15.5 -1 0
5.5 -1 0
0 -0 0
14.5 -1 0.00000000000000006123234
14.5 -1 0.00000000000000006123234
25 -0 0
15.5 -1 0
0 -0 0
0 -10 10
0 -0 20
0 -10 10
0 -10 20
0 -0 20
0 -0 0
0 -10 0
0 -10 10
50.46194 -0 15.191341
50.353554 -0 15.353554
90 -0 40
50.46194 -0 15.191341
90 -0 40
50.5 -0 15
50.353554 -0 15.353554
50.19134 -0 15.46194
90 -0 40
50.19134 -0 15.46194
50 -0 15.5
90 -0 40
49.80866 -0 15.46194
49.646446 -0 15.353554
10 -0 40
49.80866 -0 15.46194
10 -0 40
50 -0 15.5
49.646446 -0 15.353554
49.53806 -0 15.191341
10 -0 40
10 -0 40
90 -0 40
50 -0 15.5
25 -0 0
10 -0 40
49.53806 -0 15.191341
25 -0 0
49.53806 -0 15.191341
49.5 -0 15
25 -0 0
49.5 -0 15
49.53806 -0 14.808659
49.80866 -0 14.53806
50 -0 0
49.646446 -0 14.646446
50 -0 0
49.53806 -0 14.808659
49.646446 -0 14.646446
50.19134 -0 14.53806
50.353554 -0 14.646446
50 -0 0
50.19134 -0 14.53806
50 -0 0
50 -0 14.5
50.353554 -0 14.646446
50.46194 -0 14.808659
50 -0 0
25 -0 0
49.53806 -0 14.808659
50 -0 0
50 -0 0
49.80866 -0 14.53806
50 -0 14.5
0 -0 20
25 -0 0
0 -0 0
50.5 -0 15
100 -0 0
50.46194 -0 14.808659
90 -0 40
100 -0 0
50.5 -0 15
100 -0 0
90 -0 40
110 -0 20
50.46194 -0 14.808659
100 -0 0
50 -0 0
25 -0 0
0 -0 20
10 -0 40
105 -10 10
110 -10 20
100 -10 10
100 -10 10
110 -10 20
95 -10 35
0 -10 0
100 -10 10
0 -10 10
100 -10 10
100 -10 0
105 -10 10
100 -10 10
0 -10 0
100 -10 0
110 -0 20
105 -10 10
100 -0 0
105 -10 10
100 -10 0
100 -0 0
110 -0 20
110 -10 20
105 -10 10
4.6464467 -1 0.35355338
4.53806 -1 0.19134171
4.5 -1 0.00000000000000006123234
4.808658 -1 0.46193975
4.5 -1 0.00000000000000006123234
5 -1 0.5
4.808658 -1 0.46193975
4.6464467 -1 0.35355338
4.5 -1 0.00000000000000006123234
4.5 -1 0.00000000000000006123234
5.191342 -1 0.46193975
5 -1 0.5
5.46194 -1 0.19134171
4.5 -1 0.00000000000000006123234
5.5 -1 0
4.5 -1 0.00000000000000006123234
5.3535533 -1 0.35355338
5.191342 -1 0.46193975
5.46194 -1 0.19134171
5.3535533 -1 0.35355338
4.5 -1 0.00000000000000006123234
4.53806 -1 0.19134171
4.6464467 -1 0.35355338
4.53806 -2 0.19134171
4.6464467 -1 0.35355338
4.808658 -1 0.46193975
4.6464467 -2 0.35355338
4.808658 -1 0.46193975
4.808658 -2 0.46193975
4.6464467 -2 0.35355338
5 -1 0.5
5 -2 0.5
4.808658 -2 0.46193975
5.191342 -1 0.46193975
5 -2 0.5
5 -1 0.5
5.3535533 -1 0.35355338
5.191342 -2 0.46193975
5.191342 -1 0.46193975
5.3535533 -2 0.35355338
5.191342 -2 0.46193975
5.3535533 -1 0.35355338
4.53806 -1 0.19134171
4.5 -2 0.00000000000000006123234
4.5 -1 0.00000000000000006123234
5.5 -2 0
5.46194 -2 0.19134171
5.5 -1 0
5.46194 -2 0.19134171
5.46194 -1 0.19134171
5.5 -1 0
5.3535533 -2 0.35355338
5.46194 -1 0.19134171
5.46194 -2 0.19134171
5.3535533 -1 0.35355338
5.46194 -1 0.19134171
5.3535533 -2 0.35355338
5.191342 -1 0.46193975
5.191342 -2 0.46193975
5 -2 0.5
4.808658 -1 0.46193975
5 -1 0.5
4.808658 -2 0.46193975
4.53806 -2 0.19134171
4.5 -2 0.00000000000000006123234
4.53806 -1 0.19134171
4.6464467 -1 0.35355338
4.6464467 -2 0.35355338
4.53806 -2 0.19134171
4.6464467 -2 0.35355338
4.5 -2 0.00000000000000006123234
4.53806 -2 0.19134171
4.808658 -2 0.46193975
5 -2 0.5
4.5 -2 0.00000000000000006123234
4.808658 -2 0.46193975
4.5 -2 0.00000000000000006123234
4.6464467 -2 0.35355338
4.5 -2 0.00000000000000006123234
5 -2 0.5
5.191342 -2 0.46193975
5.46194 -2 0.19134171
5.5 -2 0
4.5 -2 0.00000000000000006123234
4.5 -2 0.00000000000000006123234
5.191342 -2 0.46193975
5.3535533 -2 0.35355338
5.46194 -2 0.19134171
4.5 -2 0.00000000000000006123234
5.3535533 -2 0.35355338
14.646446 -1 0.35355338
14.53806 -1 0.19134171
14.5 -1 0.00000000000000006123234
14.808659 -1 0.46193975
14.5 -1 0.00000000000000006123234
15 -1 0.5
14.808659 -1 0.46193975
14.646446 -1 0.35355338
14.5 -1 0.00000000000000006123234
14.5 -1 0.00000000000000006123234
15.191341 -1 0.46193975
15 -1 0.5
15.46194 -1 0.19134171
14.5 -1 0.00000000000000006123234
15.5 -1 0
14.5 -1 0.00000000000000006123234
15.353554 -1 0.35355338
15.191341 -1 0.46193975
15.46194 -1 0.19134171
15.353554 -1 0.35355338
14.5 -1 0.00000000000000006123234
14.53806 -1 0.19134171
14.646446 -1 0.35355338
14.53806 -2 0.19134171
14.646446 -1 0.35355338
14.808659 -1 0.46193975
14.646446 -2 0.35355338
14.808659 -1 0.46193975
14.808659 -2 0.46193975
14.646446 -2 0.35355338
15 -1 0.5
15 -2 0.5
14.808659 -2 0.46193975
15.191341 -1 0.46193975
15 -2 0.5
15 -1 0.5
15.353554 -1 0.35355338
15.191341 -2 0.46193975
15.191341 -1 0.46193975
15.353554 -2 0.35355338
15.191341 -2 0.46193975
15.353554 -1 0.35355338
14.53806 -1 0.19134171
14.5 -2 0.00000000000000006123234
14.5 -1 0.00000000000000006123234
15.5 -2 0
15.46194 -2 0.19134171
15.5 -1 0
15.46194 -2 0.19134171
15.46194 -1 0.19134171
15.5 -1 0
15.353554 -2 0.35355338
15.46194 -1 0.19134171
15.46194 -2 0.19134171
15.353554 -1 0.35355338
15.46194 -1 0.19134171
15.353554 -2 0.35355338
15.191341 -1 0.46193975
15.191341 -2 0.46193975
15 -2 0.5
14.808659 -1 0.46193975
15 -1 0.5
14.808659 -2 0.46193975
14.53806 -2 0.19134171
14.5 -2 0.00000000000000006123234
14.53806 -1 0.19134171
14.646446 -1 0.35355338
14.646446 -2 0.35355338
14.53806 -2 0.19134171
14.646446 -2 0.35355338
14.5 -2 0.00000000000000006123234
14.53806 -2 0.19134171
14.808659 -2 0.46193975
15 -2 0.5
14.5 -2 0.00000000000000006123234
14.808659 -2 0.46193975
14.5 -2 0.00000000000000006123234
14.646446 -2 0.35355338
14.5 -2 0.00000000000000006123234
15 -2 0.5
15.191341 -2 0.46193975
15.46194 -2 0.19134171
15.5 -2 0
14.5 -2 0.00000000000000006123234
14.5 -2 0.00000000000000006123234
15.191341 -2 0.46193975
15.353554 -2 0.35355338
15.46194 -2 0.19134171
14.5 -2 0.00000000000000006123234
15.353554 -2 0.35355338
24.646446 -1 0.35355338
24.538061 -1 0.19134171
24.5 -1 0.00000000000000006123234
24.808659 -1 0.46193975
24.5 -1 0.00000000000000006123234
25 -1 0.5
24.808659 -1 0.46193975
24.646446 -1 0.35355338
24.5 -1 0.00000000000000006123234
24.5 -1 0.00000000000000006123234
25.191341 -1 0.46193975
25 -1 0.5
25.461939 -1 0.19134171
24.5 -1 0.00000000000000006123234
25.5 -1 0
24.5 -1 0.00000000000000006123234
25.353554 -1 0.35355338
25.191341 -1 0.46193975
25.461939 -1 0.19134171
25.353554 -1 0.35355338
24.5 -1 0.00000000000000006123234
24.538061 -1 0.19134171
24.646446 -1 0.35355338
24.538061 -2 0.19134171
24.646446 -1 0.35355338
24.808659 -1 0.46193975
24.646446 -2 0.35355338
24.808659 -1 0.46193975
24.808659 -2 0.46193975
24.646446 -2 0.35355338
25 -1 0.5
25 -2 0.5
24.808659 -2 0.46193975
25.191341 -1 0.46193975
25 -2 0.5
25 -1 0.5
25.353554 -1 0.35355338
25.191341 -2 0.46193975
25.191341 -1 0.46193975
25.353554 -2 0.35355338
25.191341 -2 0.46193975
25.353554 -1 0.35355338
24.538061 -1 0.19134171
24.5 -2 0.00000000000000006123234
24.5 -1 0.00000000000000006123234
25.5 -2 0
25.461939 -2 0.19134171
25.5 -1 0
25.461939 -2 0.19134171
25.461939 -1 0.19134171
25.5 -1 0
25.353554 -2 0.35355338
25.461939 -1 0.19134171
25.461939 -2 0.19134171
25.353554 -1 0.35355338
25.461939 -1 0.19134171
25.353554 -2 0.35355338
25.191341 -1 0.46193975
25.191341 -2 0.46193975
25 -2 0.5
24.808659 -1 0.46193975
25 -1 0.5
24.808659 -2 0.46193975
24.538061 -2 0.19134171
24.5 -2 0.00000000000000006123234
24.538061 -1 0.19134171
24.646446 -1 0.35355338
24.646446 -2 0.35355338
24.538061 -2 0.19134171
24.646446 -2 0.35355338
24.5 -2 0.00000000000000006123234
24.538061 -2 0.19134171
24.808659 -2 0.46193975
25 -2 0.5
24.5 -2 0.00000000000000006123234
24.808659 -2 0.46193975
24.5 -2 0.00000000000000006123234
24.646446 -2 0.35355338
24.5 -2 0.00000000000000006123234
25 -2 0.5
25.191341 -2 0.46193975
25.461939 -2 0.19134171
25.5 -2 0
24.5 -2 0.00000000000000006123234
24.5 -2 0.00000000000000006123234
25.191341 -2 0.46193975
25.353554 -2 0.35355338
25.461939 -2 0.19134171
24.5 -2 0.00000000000000006123234
25.353554 -2 0.35355338
34.646446 -1 0.35355338
34.53806 -1 0.19134171
34.5 -1 0.00000000000000006123234
34.80866 -1 0.46193975
34.5 -1 0.00000000000000006123234
35 -1 0.5
34.80866 -1 0.46193975
34.646446 -1 0.35355338
34.5 -1 0.00000000000000006123234
34.5 -1 0.00000000000000006123234
35.19134 -1 0.46193975
35 -1 0.5
35.46194 -1 0.19134171
34.5 -1 0.00000000000000006123234
35.5 -1 0
34.5 -1 0.00000000000000006123234
35.353554 -1 0.35355338
35.19134 -1 0.46193975
35.46194 -1 0.19134171
35.353554 -1 0.35355338
34.5 -1 0.00000000000000006123234
34.53806 -1 0.19134171
34.646446 -1 0.35355338
34.53806 -2 0.19134171
34.646446 -1 0.35355338
34.80866 -1 0.46193975
34.646446 -2 0.35355338
34.80866 -1 0.46193975
34.80866 -2 0.46193975
34.646446 -2 0.35355338
35 -1 0.5
35 -2 0.5
34.80866 -2 0.46193975
35.19134 -1 0.46193975
35 -2 0.5
35 -1 0.5
35.353554 -1 0.35355338
35.19134 -2 0.46193975
35.19134 -1 0.46193975
35.353554 -2 0.35355338
35.19134 -2 0.46193975
35.353554 -1 0.35355338
34.53806 -1 0.19134171
34.5 -2 0.00000000000000006123234
34.5 -1 0.00000000000000006123234
35.5 -2 0
35.46194 -2 0.19134171
35.5 -1 0
35.46194 -2 0.19134171
35.46194 -1 0.19134171
35.5 -1 0
35.353554 -2 0.35355338
35.46194 -1 0.19134171
35.46194 -2 0.19134171
35.353554 -1 0.35355338
35.46194 -1 0.19134171
35.353554 -2 0.35355338
35.19134 -1 0.46193975
35.19134 -2 0.46193975
35 -2 0.5
34.80866 -1 0.46193975
35 -1 0.5
34.80866 -2 0.46193975
34.53806 -2 0.19134171
34.5 -2 0.00000000000000006123234
34.53806 -1 0.19134171
34.646446 -1 0.35355338
34.646446 -2 0.35355338
34.53806 -2 0.19134171
34.646446 -2 0.35355338
34.5 -2 0.00000000000000006123234
34.53806 -2 0.19134171
34.80866 -2 0.46193975
35 -2 0.5
34.5 -2 0.00000000000000006123234
34.80866 -2 0.46193975
34.5 -2 0.00000000000000006123234
34.646446 -2 0.35355338
34.5 -2 0.00000000000000006123234
35 -2 0.5
35.19134 -2 0.46193975
35.46194 -2 0.19134171
35.5 -2 0
34.5 -2 0.00000000000000006123234
34.5 -2 0.00000000000000006123234
35.19134 -2 0.46193975
35.353554 -2 0.35355338
35.46194 -2 0.19134171
34.5 -2 0.00000000000000006123234
35.353554 -2 0.35355338
44.646446 -1 0.35355338
44.53806 -1 0.19134171
44.5 -1 0.00000000000000006123234
44.80866 -1 0.46193975
44.5 -1 0.00000000000000006123234
45 -1 0.5
44.80866 -1 0.46193975
44.646446 -1 0.35355338
44.5 -1 0.00000000000000006123234
44.5 -1 0.00000000000000006123234
45.19134 -1 0.46193975
45 -1 0.5
45.46194 -1 0.19134171
44.5 -1 0.00000000000000006123234
45.5 -1 0
44.5 -1 0.00000000000000006123234
45.353554 -1 0.35355338
45.19134 -1 0.46193975
45.46194 -1 0.19134171
45.353554 -1 0.35355338
44.5 -1 0.00000000000000006123234
44.53806 -1 0.19134171
44.646446 -1 0.35355338
44.53806 -2 0.19134171
44.646446 -1 0.35355338
44.80866 -1 0.46193975
44.646446 -2 0.35355338
44.80866 -1 0.46193975
44.80866 -2 0.46193975
44.646446 -2 0.35355338
45 -1 0.5
45 -2 0.5
44.80866 -2 0.46193975
45.19134 -1 0.46193975
45 -2 0.5
45 -1 0.5
45.353554 -1 0.35355338
45.19134 -2 0.46193975
45.19134 -1 0.46193975
45.353554 -2 0.35355338
45.19134 -2 0.46193975
45.353554 -1 0.35355338
44.53806 -1 0.19134171
44.5 -2 0.00000000000000006123234
44.5 -1 0.00000000000000006123234
45.5 -2 0
45.46194 -2 0.19134171
45.5 -1 0
45.46194 -2 0.19134171
45.46194 -1 0.19134171
45.5 -1 0
45.353554 -2 0.35355338
45.46194 -1 0.19134171
45.46194 -2 0.19134171
45.353554 -1 0.35355338
45.46194 -1 0.19134171
45.353554 -2 0.35355338
45.19134 -1 0.46193975
45.19134 -2 0.46193975
45 -2 0.5
44.80866 -1 0.46193975
45 -1 0.5
44.80866 -2 0.46193975
44.53806 -2 0.19134171
44.5 -2 0.00000000000000006123234
44.53806 -1 0.19134171
44.646446 -1 0.35355338
44.646446 -2 0.35355338
44.53806 -2 0.19134171
44.646446 -2 0.35355338
44.5 -2 0.00000000000000006123234
44.53806 -2 0.19134171
44.80866 -2 0.46193975
45 -2 0.5
44.5 -2 0.00000000000000006123234
44.80866 -2 0.46193975
44.5 -2 0.00000000000000006123234
44.646446 -2 0.35355338
44.5 -2 0.00000000000000006123234
45 -2 0.5
45.19134 -2 0.46193975
45.46194 -2 0.19134171
45.5 -2 0
44.5 -2 0.00000000000000006123234
44.5 -2 0.00000000000000006123234
45.19134 -2 0.46193975
45.353554 -2 0.35355338
45.46194 -2 0.19134171
44.5 -2 0.00000000000000006123234
45.353554 -2 0.35355338
0 -0 20
0 -10 20
3.3333333 -10 26.666666
0 -0 20
3.3333333 -10 26.666666
10 -0 40
3.3333333 -10 26.666666
10 -10 40
10 -0 40
1.6666666 -10 18.333334
3.3333333 -10 26.666666
0 -10 20
1.6666666 -10 18.333334
0 -10 20
0 -10 10
90 -0 40
90 -10 40
95 -10 35
90 -0 40
95 -10 35
110 -0 20
95 -10 35
110 -10 20
110 -0 20
10 -0 40
90 -10 40
90 -0 40
10 -10 40
90 -10 40
10 -0 40
50.46194 -1 15.191341
50.353554 -1 15.353554
50.46194 -0 15.191341
50.353554 -1 15.353554
50.19134 -1 15.46194
50.353554 -0 15.353554
50.19134 -1 15.46194
50.19134 -0 15.46194
50.353554 -0 15.353554
50 -1 15.5
50 -0 15.5
50.19134 -0 15.46194
49.80866 -1 15.46194
50 -0 15.5
50 -1 15.5
49.646446 -1 15.353554
49.80866 -0 15.46194
49.80866 -1 15.46194
49.646446 -0 15.353554
49.80866 -0 15.46194
49.646446 -1 15.353554
49.53806 -0 15.191341
49.646446 -0 15.353554
49.53806 -1 15.191341
49.53806 -0 15.191341
49.53806 -1 15.191341
49.5 -1 15
49.5 -0 15
49.5 -1 15
49.53806 -1 14.808659
49.5 -0 15
49.53806 -1 14.808659
49.53806 -0 14.808659
49.53806 -0 14.808659
49.646446 -1 14.646446
49.646446 -0 14.646446
49.646446 -1 14.646446
49.80866 -1 14.53806
49.646446 -0 14.646446
49.80866 -1 14.53806
50 -1 14.5
49.80866 -0 14.53806
50.5 -1 15
50.46194 -1 15.191341
50.5 -0 15
50.46194 -0 14.808659
50.5 -1 15
50.5 -0 15
50.46194 -1 14.808659
50.5 -1 15
50.46194 -0 14.808659
50.46194 -1 14.808659
50.46194 -0 14.808659
50.353554 -0 14.646446
50.46194 -1 14.808659
50.353554 -0 14.646446
50.353554 -1 14.646446
50.353554 -0 14.646446
50.19134 -0 14.53806
50.353554 -1 14.646446
50.19134 -0 14.53806
50.19134 -1 14.53806
50.353554 -1 14.646446
50 -0 14.5
50.19134 -1 14.53806
50.19134 -0 14.53806
50 -1 14.5
50.19134 -1 14.53806
50 -0 14.5
50 -1 14.5
50 -0 14.5
49.80866 -0 14.53806
49.80866 -1 14.53806
49.80866 -0 14.53806
49.646446 -0 14.646446
49.53806 -1 14.808659
49.646446 -1 14.646446
49.53806 -0 14.808659
49.53806 -0 15.191341
49.5 -1 15
49.5 -0 15
49.646446 -0 15.353554
49.646446 -1 15.353554
49.53806 -1 15.191341
49.80866 -0 15.46194
50 -0 15.5
49.80866 -1 15.46194
50 -1 15.5
50.19134 -0 15.46194
50.19134 -1 15.46194
50.5 -0 15
50.46194 -1 15.191341
50.46194 -0 15.191341
50.46194 -0 15.191341
50.353554 -1 15.353554
50.353554 -0 15.353554
100 -10 10
0 -40 10
0 -10 10
100 -40 10
0 -40 10
100 -10 10
92.5 -10 47.5
90 -40 60
95 -10 35
95 -10 35
90 -40 60
100 -40 10
95 -10 35
100 -40 10
100 -10 10
90 -40 60
92.5 -10 47.5
90 -10 60
92.5 -10 47.5
90 -10 40
90 -10 60
92.5 -10 47.5
95 -10 35
90 -10 40
90 -10 60
10 -10 40
10 -10 60
6.6666665 -10 43.333332
10 -10 60
10 -10 40
90 -10 60
90 -10 40
10 -10 40
3.3333333 -10 26.666666
6.6666665 -10 43.333332
10 -10 40
6.6666665 -10 43.333332
3.3333333 -10 26.666666
10 -40 60
3.3333333 -10 26.666666
0 -40 10
10 -40 60
1.6666666 -10 18.333334
0 -40 10
3.3333333 -10 26.666666
6.6666665 -10 43.333332
10 -40 60
10 -10 60
0 -40 10
1.6666666 -10 18.333334
0 -10 10
50.353554 -1 14.646446
50.5 -1 15
50.46194 -1 14.808659
50.19134 -1 14.53806
50 -1 14.5
50.5 -1 15
50.19134 -1 14.53806
50.5 -1 15
50.353554 -1 14.646446
50.5 -1 15
50 -1 14.5
49.80866 -1 14.53806
49.53806 -1 14.808659
49.5 -1 15
50.5 -1 15
50.5 -1 15
49.80866 -1 14.53806
49.646446 -1 14.646446
50.5 -1 15
49.5 -1 15
49.53806 -1 15.191341
49.80866 -1 15.46194
50.5 -1 15
49.646446 -1 15.353554
50.5 -1 15
49.53806 -1 15.191341
49.646446 -1 15.353554
49.80866 -1 15.46194
50 -1 15.5
50.5 -1 15
50.5 -1 15
50.19134 -1 15.46194
50.353554 -1 15.353554
50 -1 15.5
50.19134 -1 15.46194
50.5 -1 15
50.5 -1 15
50.353554 -1 15.353554
50.46194 -1 15.191341
49.53806 -1 14.808659
50.5 -1 15
49.646446 -1 14.646446
10 -40 60
0 -40 10
90 -40 60
100 -40 10
90 -40 60
0 -40 10
10 -10 60
90 -40 60
90 -10 60
10 -40 60
90 -40 60
10 -10 60
3 0 1 2
3 3 4 5
3 6 7 8
3 9 10 11
3 12 13 14
3 15 16 17
3 18 19 20
3 21 22 23
3 24 25 26
3 27 28 29
3 30 31 32
3 33 34 35
3 36 37 38
3 39 40 41
3 42 43 44
3 45 46 47
3 48 49 50
3 51 52 53
3 54 55 56
3 57 58 59
3 60 61 62
3 63 64 65
3 66 67 68
3 69 70 71
3 72 73 74
3 75 76 77
3 78 79 80
3 81 82 83
3 84 85 86
3 87 88 89
3 90 91 92
3 93 94 95
3 96 97 98
3 99 100 101
3 102 103 104
3 105 106 107
3 108 109 110
3 111 112 113
3 114 115 116
3 117 118 119
3 120 121 122
3 123 124 125
3 126 127 128
3 129 130 131
3 132 133 134
3 135 136 137
3 138 139 140
3 141 142 143
3 144 145 146
3 147 148 149
3 150 151 152
3 153 154 155
3 156 157 158
3 159 160 161
3 162 163 164
3 165 166 167
3 168 169 170
3 171 172 173
3 174 175 176
3 177 178 179
3 180 181 182
3 183 184 185
3 186 187 188
3 189 190 191
3 192 193 194
3 195 196 197
3 198 199 200
3 201 202 203
3 204 205 206
3 207 208 209
3 210 211 212
3 213 214 215
3 216 217 218
3 219 220 221
3 222 223 224
3 225 226 227
3 228 229 230
3 231 232 233
3 234 235 236
3 237 238 239
3 240 241 242
3 243 244 245
3 246 247 248
3 249 250 251
3 252 253 254
3 255 256 257
3 258 259 260
3 261 262 263
3 264 265 266
3 267 268 269
3 270 271 272
3 273 274 275
3 276 277 278
3 279 280 281
3 282 283 284
3 285 286 287
3 288 289 290
3 291 292 293
3 294 295 296
3 297 298 299
3 300 301 302
3 303 304 305
3 306 307 308
3 309 310 311
3 312 313 314
3 315 316 317
3 318 319 320
3 321 322 323
3 324 325 326
3 327 328 329
3 330 331 332
3 333 334 335
3 336 337 338
3 339 340 341
3 342 343 344
3 345 346 347
3 348 349 350
3 351 352 353
3 354 355 356
3 357 358 359
3 360 361 362
3 363 364 365
3 366 367 368
3 369 370 371
3 372 373 374
3 375 376 377
3 378 379 380
3 381 382 383
3 384 385 386
3 387 388 389
3 390 391 392
3 393 394 395
3 396 397 398
3 399 400 401
3 402 403 404
3 405 406 407
3 408 409 410
3 411 412 413
3 414 415 416
3 417 418 419
3 420 421 422
3 423 424 425
3 426 427 428
3 429 430 431
3 432 433 434
3 435 436 437
3 438 439 440
3 441 442 443
3 444 445 446
3 447 448 449
3 450 451 452
3 453 454 455
3 456 457 458
3 459 460 461
3 462 463 464
3 465 466 467
3 468 469 470
3 471 472 473
3 474 475 476
3 477 478 479
3 480 481 482
3 483 484 485
3 486 487 488
3 489 490 491
3 492 493 494
3 495 496 497
3 498 499 500
3 501 502 503
3 504 505 506
3 507 508 509
3 510 511 512
3 513 514 515
3 516 517 518
3 519 520 521
3 522 523 524
3 525 526 527
3 528 529 530
3 531 532 533
3 534 535 536
3 537 538 539
3 540 541 542
3 543 544 545
3 546 547 548
3 549 550 551
3 552 553 554
3 555 556 557
3 558 559 560
3 561 562 563
3 564 565 566
3 567 568 569
3 570 571 572
3 573 574 575
3 576 577 578
3 579 580 581
3 582 583 584
3 585 586 587
3 588 589 590
3 591 592 593
3 594 595 596
3 597 598 599
3 600 601 602
3 603 604 605
3 606 607 608
3 609 610 611
3 612 613 614
3 615 616 617
3 618 619 620
3 621 622 623
3 624 625 626
3 627 628 629
3 630 631 632
3 633 634 635
3 636 637 638
3 639 640 641
3 642 643 644
3 645 646 647
3 648 649 650
3 651 652 653
3 654 655 656
3 657 658 659
3 660 661 662
3 663 664 665
3 666 667 668
3 669 670 671
3 672 673 674
3 675 676 677
3 678 679 680
3 681 682 683
3 684 685 686
3 687 688 689
3 690 691 692
3 693 694 695
3 696 697 698
3 699 700 701
3 702 703 704
3 705 706 707
3 708 709 710
3 711 712 713
3 714 715 716
3 717 718 719
3 720 721 722
3 723 724 725
3 726 727 728
3 729 730 731
3 732 733 734
3 735 736 737
3 738 739 740
3 741 742 743
3 744 745 746
3 747 748 749
3 750 751 752
3 753 754 755
3 756 757 758
3 759 760 761
3 762 763 764
3 765 766 767
3 768 769 770
3 771 772 773
3 774 775 776
3 777 778 779
3 780 781 782
3 783 784 785
3 786 787 788
3 789 790 791
3 792 793 794
3 795 796 797
3 798 799 800
3 801 802 803
3 804 805 806
3 807 808 809
3 810 811 812
3 813 814 815
3 816 817 818
3 819 820 821
3 822 823 824
3 825 826 827
3 828 829 830
3 831 832 833
3 834 835 836
3 837 838 839
3 840 841 842
3 843 844 845
3 846 847 848
3 849 850 851
3 852 853 854
3 855 856 857
3 858 859 860
3 861 862 863
3 864 865 866
3 867 868 869
3 870 871 872
3 873 874 875
3 876 877 878
3 879 880 881
3 882 883 884
3 885 886 887
